<?xml version="1.0" standalone="no"?>
<!DOCTYPE svg PUBLIC "-//W3C//DTD SVG 20010904//EN"
 "http://www.w3.org/TR/2001/REC-SVG-20010904/DTD/svg10.dtd">
<svg version="1.0" xmlns="http://www.w3.org/2000/svg"
 width="1178.000000pt" height="1178.000000pt" viewBox="0 0 1178.000000 1178.000000"
 preserveAspectRatio="xMidYMid meet">
<metadata>
Created by potrace 1.14, written by Peter Selinger 2001-2017
</metadata>
<g transform="translate(0.000000,1178.000000) scale(0.100000,-0.100000)"
fill="#000000" stroke="none">
<path d="M9009 11720 c-1 -14 -1 -28 0 -32 0 -5 -3 -8 -7 -8 -4 0 -8 -8 -9
-18 -1 -9 -9 -37 -18 -62 -9 -25 -18 -53 -20 -63 -6 -25 -72 -201 -96 -257
-39 -86 -152 -305 -170 -329 -11 -13 -19 -28 -19 -33 0 -8 -115 -183 -130
-198 -3 -3 -18 -23 -35 -45 -16 -22 -34 -45 -40 -51 -5 -7 -23 -29 -40 -49
-46 -58 -218 -233 -255 -260 -19 -14 -30 -25 -25 -25 5 0 -5 -10 -22 -22 -17
-13 -76 -59 -131 -103 -135 -108 -185 -145 -322 -236 -41 -28 -76 -55 -78 -60
-2 -5 -8 -9 -13 -9 -8 0 -62 -36 -159 -105 -15 -11 -50 -36 -76 -55 -27 -19
-53 -38 -59 -42 -5 -4 -49 -37 -96 -72 -117 -87 -119 -88 -229 -196 -140 -138
-279 -309 -317 -390 -3 -8 -17 -28 -29 -45 -12 -16 -23 -33 -24 -37 -1 -4 -24
-55 -51 -114 -28 -58 -51 -115 -52 -125 -1 -10 -6 -19 -11 -19 -5 0 -7 -3 -3
-6 3 -4 0 -19 -9 -35 -8 -16 -12 -29 -10 -29 3 0 1 -12 -5 -27 -6 -16 -13 -37
-15 -48 -2 -11 -6 -31 -9 -45 -6 -29 -16 -124 -20 -184 -2 -22 -4 -41 -5 -41
-1 0 -4 -96 -7 -212 -3 -117 -1 -213 4 -213 4 0 69 60 145 133 162 157 278
251 447 362 116 77 312 182 371 200 14 4 30 11 35 15 6 4 19 10 30 13 11 3 57
19 103 35 45 17 82 28 82 25 0 -3 6 -1 13 5 10 9 315 101 387 117 8 2 51 13
95 26 44 12 87 23 95 24 8 1 22 5 30 8 23 9 90 29 103 31 13 2 84 24 107 33 8
4 17 7 20 8 3 1 21 6 40 12 64 19 221 84 289 120 36 20 76 41 88 47 13 6 23
14 23 19 0 4 6 7 14 7 8 0 21 6 28 13 7 7 38 31 68 54 30 22 74 58 97 79 49
46 176 213 199 264 9 19 20 37 23 40 11 9 31 50 31 63 0 7 5 18 12 25 7 7 17
31 24 55 35 129 54 205 58 232 3 17 8 44 10 61 6 31 16 150 20 232 1 24 -2 46
-6 48 -4 3 -4 15 0 27 4 12 7 33 6 47 -7 91 -14 169 -18 195 -12 91 -18 127
-32 195 -9 41 -18 86 -20 100 -3 14 -9 39 -14 55 -5 17 -23 77 -40 135 -17 58
-32 110 -34 115 -2 6 -9 24 -15 40 -7 17 -14 35 -15 40 -9 44 -96 248 -110
257 -6 4 -7 8 -3 8 12 0 -111 233 -143 271 -29 34 -29 34 -31 9z m-703 -2155
c-7 -79 -60 -217 -90 -237 -6 -4 -7 -8 -3 -8 18 0 -147 -167 -174 -175 -11 -4
-19 -10 -19 -14 0 -13 -113 -89 -156 -104 -21 -8 -84 -33 -139 -55 -114 -47
-235 -93 -250 -97 -5 -1 -23 -7 -40 -14 -16 -6 -50 -19 -75 -28 -25 -10 -48
-21 -51 -26 -3 -5 -10 -9 -15 -9 -27 -1 -210 -88 -281 -134 -29 -19 -56 -34
-59 -34 -8 0 -136 -104 -174 -142 -19 -20 -51 -54 -70 -78 -19 -23 -43 -51
-52 -61 -10 -10 -18 -21 -18 -24 0 -3 -15 -27 -33 -53 -40 -58 -79 -132 -69
-132 4 0 3 -4 -3 -8 -14 -10 -70 -129 -75 -160 -1 -4 -7 -13 -13 -21 -6 -7
-12 -20 -13 -28 -2 -9 -8 -21 -15 -27 -18 -17 -5 115 20 194 11 36 20 69 20
74 0 5 3 12 8 15 4 3 24 38 42 76 33 66 94 167 116 191 6 6 21 26 35 45 46 63
183 189 258 240 75 50 241 135 317 162 99 35 192 70 220 82 17 7 50 19 75 26
25 7 50 15 55 19 6 4 39 17 75 30 36 13 75 30 88 38 12 8 22 11 22 7 0 -5 8
-1 18 8 9 8 22 16 27 17 23 4 135 63 135 71 0 5 7 9 15 9 16 0 117 79 153 119
50 56 61 70 73 93 6 12 15 25 19 28 7 6 63 120 79 163 17 45 24 31 17 -38z"/>
<path d="M5090 10390 c-12 -16 -19 -30 -16 -30 3 0 -4 -11 -15 -24 -12 -14
-27 -34 -33 -45 -17 -33 -189 -305 -195 -311 -15 -13 -29 -48 -23 -56 15 -21
110 -83 167 -109 33 -15 88 -41 122 -57 35 -16 66 -28 69 -28 4 1 10 -2 13 -7
3 -5 29 -22 56 -38 118 -67 318 -242 395 -344 14 -19 32 -41 40 -50 8 -9 21
-29 29 -44 8 -15 18 -27 23 -27 4 0 8 -5 8 -10 0 -6 11 -27 23 -48 46 -73 57
-92 55 -94 -2 -2 7 -16 18 -33 12 -16 25 -41 29 -55 4 -14 13 -34 20 -46 21
-33 101 -281 124 -384 43 -189 49 -261 46 -565 -2 -159 -6 -310 -10 -335 -6
-44 -5 -44 24 24 17 38 28 73 25 77 -3 5 -1 9 4 9 7 0 33 88 34 117 0 5 4 16
9 26 9 16 20 75 23 125 0 12 3 22 6 22 3 0 6 8 6 18 1 9 4 40 8 67 4 28 9 73
12 100 3 28 7 64 10 80 3 17 5 36 4 43 0 23 0 37 3 152 2 63 -1 123 -6 134 -7
14 -6 16 4 11 8 -5 10 -4 5 4 -5 7 -10 36 -12 64 -2 29 -6 66 -9 82 -2 17 -7
50 -10 75 -6 48 -12 83 -15 88 -3 3 -5 12 -14 65 -4 26 -12 47 -17 47 -6 0 -7
5 -4 10 13 20 -91 295 -136 360 -9 14 -16 28 -15 31 1 6 -79 132 -104 163 -94
116 -169 203 -192 225 -10 8 -18 18 -18 21 0 17 -428 455 -491 503 -45 34 -53
34 -79 -3z"/>
<path d="M4189 7956 c-2 -2 -69 -5 -149 -7 -80 -1 -149 -5 -154 -7 -5 -3 -30
-6 -56 -8 -39 -3 -165 -27 -252 -50 -44 -11 -59 -14 -78 -18 -50 -12 -281 -84
-335 -106 -28 -11 -54 -20 -61 -19 -3 0 -16 -7 -30 -15 -13 -9 -24 -14 -24
-11 0 3 -10 0 -22 -7 -13 -7 -25 -13 -28 -13 -40 -9 -327 -157 -415 -215 -16
-11 -40 -25 -52 -31 -13 -7 -23 -16 -23 -21 0 -4 -7 -8 -15 -8 -8 0 -15 -4
-15 -10 0 -5 -6 -10 -12 -10 -7 0 -24 -9 -38 -20 -14 -11 -54 -42 -90 -70 -36
-27 -71 -56 -79 -62 -8 -7 -26 -21 -40 -30 -14 -10 -22 -18 -16 -18 5 0 -2 -8
-15 -17 -72 -50 -247 -227 -355 -358 -22 -26 -45 -53 -50 -59 -46 -49 -245
-339 -245 -356 0 -5 -3 -10 -7 -12 -10 -4 -38 -54 -95 -168 -24 -47 -47 -88
-51 -91 -5 -3 -9 -10 -9 -15 0 -9 -19 -54 -58 -139 -41 -89 -142 -356 -155
-412 -3 -10 -14 -49 -26 -88 -11 -38 -23 -79 -25 -90 -2 -11 -12 -54 -22 -95
-21 -88 -22 -89 -23 -92 -3 -10 -8 -39 -13 -78 -4 -25 -9 -52 -11 -60 -5 -19
-12 -61 -20 -130 -4 -30 -9 -66 -10 -80 -14 -111 -20 -229 -19 -435 0 -247 6
-338 31 -510 3 -22 6 -52 7 -67 0 -16 4 -28 7 -28 3 0 6 -6 6 -12 1 -43 36
-212 69 -333 9 -33 20 -73 24 -90 7 -31 36 -118 47 -145 3 -8 8 -23 9 -32 6
-27 124 -321 135 -334 5 -6 6 -14 2 -17 -3 -4 -2 -7 3 -7 6 0 16 -17 23 -37 8
-21 17 -40 21 -43 4 -3 22 -35 40 -72 18 -38 36 -68 40 -68 4 0 10 -8 14 -17
8 -27 33 -67 130 -212 101 -152 161 -229 246 -319 33 -35 60 -66 60 -68 0 -6
183 -187 271 -268 55 -51 112 -102 194 -175 58 -51 124 -101 134 -101 6 0 11
-4 11 -9 0 -5 44 -38 98 -73 147 -97 156 -103 165 -100 4 1 7 -2 7 -7 0 -5 14
-14 30 -21 17 -7 30 -17 30 -22 0 -5 4 -7 9 -4 5 4 11 2 13 -2 3 -9 331 -174
403 -203 71 -29 80 -32 88 -31 4 1 7 -3 7 -9 0 -5 4 -8 9 -4 5 3 12 1 16 -5 3
-5 12 -10 19 -10 8 0 31 -8 52 -17 22 -9 44 -18 50 -19 7 -1 38 -11 70 -23 64
-22 197 -59 274 -76 8 -2 15 -4 15 -5 0 -1 9 -3 20 -5 11 -2 36 -6 55 -10 84
-15 149 -25 210 -32 83 -10 457 -10 535 0 55 7 143 20 155 22 3 1 25 5 50 9
58 10 127 28 220 57 41 12 77 23 80 23 3 1 24 8 45 18 60 25 79 31 88 30 4 -1
7 2 7 8 0 5 9 10 20 10 11 0 20 5 20 10 0 6 5 10 12 10 17 0 118 53 118 62 0
4 5 8 12 8 6 0 43 20 82 44 89 54 102 59 129 44 12 -7 24 -13 27 -13 8 -1 97
-43 190 -90 47 -23 87 -42 90 -42 3 0 27 -10 54 -21 27 -12 53 -22 57 -22 5 0
17 -4 27 -9 16 -9 43 -20 67 -27 6 -2 48 -15 95 -29 47 -15 92 -28 100 -30 40
-10 210 -44 245 -49 22 -3 51 -8 65 -11 33 -5 150 -17 220 -21 69 -4 399 -4
460 0 80 6 204 17 230 21 14 2 48 6 75 10 96 13 121 17 195 32 102 21 104 21
110 23 3 1 10 3 15 4 28 5 200 54 225 63 21 8 43 14 58 15 6 1 12 5 12 10 0 4
11 8 25 8 14 0 25 5 25 12 0 6 3 9 6 5 6 -6 74 18 141 48 17 8 34 15 38 15 14
0 254 120 360 180 190 108 530 346 555 389 5 9 10 13 10 8 0 -8 25 14 134 113
124 114 244 239 353 369 27 31 25 28 88 111 28 35 58 73 68 84 9 11 17 25 17
32 0 7 4 14 8 16 12 4 82 105 82 117 0 5 4 11 8 13 15 6 172 295 178 328 0 3
7 19 14 35 7 17 14 33 14 37 1 4 7 13 14 20 6 6 12 17 12 23 0 6 18 56 41 110
22 55 56 149 75 210 20 60 40 119 44 130 5 11 12 34 14 50 3 17 12 57 21 90 8
33 17 69 19 80 23 113 23 114 25 118 2 1 4 19 6 40 2 21 6 50 10 64 6 25 12
69 20 158 2 22 7 65 10 97 3 31 7 96 9 145 1 49 6 95 10 101 4 7 2 12 -4 12
-7 0 -8 6 -1 19 6 10 7 21 4 25 -8 8 -6 143 2 156 4 6 3 10 -2 10 -4 0 -8 33
-9 73 -1 97 -12 249 -18 267 -3 8 -8 44 -11 80 -5 66 -8 88 -20 150 -3 19 -8
50 -11 69 -2 18 -6 37 -9 41 -3 4 -8 25 -11 46 -8 48 -12 69 -14 69 -2 0 -3 6
-13 55 -10 45 -37 142 -43 151 -3 5 -7 20 -10 34 -2 13 -26 84 -53 157 -44
121 -71 186 -119 288 -9 19 -15 39 -14 43 1 4 -5 10 -13 13 -8 4 -15 13 -15
21 0 17 -41 95 -55 105 -5 4 -6 8 -2 8 5 0 -1 13 -12 29 -12 16 -21 34 -21 39
0 6 -3 12 -8 14 -4 2 -27 37 -51 78 -25 41 -48 77 -53 78 -4 2 -8 10 -8 18 0
8 -3 14 -7 14 -5 1 -24 25 -43 55 -19 30 -38 55 -42 55 -5 0 -8 5 -8 11 0 11
-136 183 -205 258 -125 139 -213 222 -319 306 -22 17 -44 35 -50 40 -6 6 -33
26 -61 45 -27 19 -52 38 -55 41 -7 8 -183 124 -200 132 -8 4 -28 16 -45 27
-58 38 -430 227 -457 232 -7 2 -15 6 -18 9 -3 3 -32 16 -65 29 -33 13 -63 28
-66 33 -3 5 -10 9 -15 8 -18 -1 -59 12 -73 23 -8 6 -17 10 -20 10 -3 -1 -10 0
-16 2 -139 47 -346 105 -423 119 -62 10 -479 23 -512 16 -3 -1 -52 -4 -110 -6
-126 -6 -163 -10 -272 -30 -60 -12 -281 -82 -363 -116 -16 -7 -32 -13 -35 -14
-3 -1 -13 -5 -22 -8 -10 -4 -26 -10 -35 -14 -10 -3 -21 -5 -25 -5 -5 1 -8 -3
-8 -9 0 -5 -4 -7 -10 -4 -5 3 -10 1 -10 -6 0 -7 -3 -10 -6 -6 -8 8 -193 -89
-285 -149 -41 -27 -116 -79 -168 -116 -52 -37 -97 -66 -100 -64 -3 1 -22 10
-41 19 -19 8 -80 37 -135 62 -144 67 -146 68 -305 135 -80 34 -154 65 -165 70
-55 24 -133 48 -139 43 -3 -4 -6 0 -6 7 0 7 -3 11 -6 7 -4 -3 -19 0 -35 9 -16
8 -31 14 -34 14 -3 1 -10 2 -17 5 -38 12 -224 69 -230 71 -5 1 -9 2 -10 4 -2
1 -10 3 -18 5 -8 2 -55 16 -105 30 -49 15 -98 29 -108 31 -10 2 -27 6 -37 9
-10 3 -31 8 -46 10 -16 2 -54 9 -84 14 -30 6 -80 13 -111 15 -31 1 -60 5 -65
7 -5 3 -43 5 -84 4 -41 0 -78 3 -81 8 -3 4 -7 5 -10 3z"/>
<path d="M5550 939 c0 -5 -4 -9 -10 -9 -11 0 -42 -24 -77 -60 -21 -22 -57 -88
-78 -145 -17 -43 -25 -79 -39 -165 -3 -14 -5 -25 -6 -25 -1 0 -3 -9 -5 -20 -2
-11 -7 -36 -11 -55 -4 -19 -9 -42 -10 -50 -1 -8 -7 -35 -14 -60 -8 -25 -13
-48 -12 -52 1 -5 -2 -8 -8 -8 -6 0 -9 -3 -8 -7 4 -19 -67 -133 -101 -163 -3
-3 -19 -20 -36 -39 -26 -29 -27 -32 -7 -22 12 6 22 8 22 4 0 -4 4 -3 8 2 4 6
30 25 57 42 28 18 62 44 77 58 15 14 32 25 38 25 5 0 10 7 10 15 0 8 4 15 9
15 8 0 103 94 161 160 17 19 49 65 72 103 37 61 42 66 54 50 7 -10 14 -26 14
-35 0 -10 4 -18 8 -18 4 0 8 -8 9 -17 2 -28 9 -52 16 -59 4 -4 7 -14 7 -23 0
-28 82 -271 91 -271 5 0 9 6 10 13 1 30 9 68 29 155 12 51 23 101 25 110 2 9
4 17 5 17 2 0 1 -2 27 103 l18 73 20 -23 c10 -13 17 -25 15 -27 -2 -2 20 -39
49 -82 60 -91 261 -299 289 -299 5 0 18 -9 30 -20 12 -12 22 -17 22 -13 0 4 4
3 8 -3 8 -11 73 -46 78 -41 2 1 -10 17 -26 34 -17 18 -30 37 -30 42 0 6 -4 11
-9 11 -15 0 -66 91 -89 155 -22 66 -29 93 -37 151 -4 21 -9 48 -12 59 -4 11
-7 27 -9 35 -22 169 -129 364 -210 384 -33 9 -68 -14 -90 -57 -9 -17 -18 -33
-19 -35 -2 -2 -27 15 -55 36 -59 45 -98 48 -130 12 -22 -26 -23 -26 -64 10
-35 31 -76 47 -76 29z"/>
</g>
</svg>
